<svg width="90" height="24" viewBox="0 0 90 24" fill="none" xmlns="http://www.w3.org/2000/svg">
<g clip-path="url(#clip0_40000028_1037)">
<mask id="mask0_40000028_1037" style="mask-type:luminance" maskUnits="userSpaceOnUse" x="0" y="0" width="90" height="24">
<path d="M89.3753 0.597168H0V23.2847H89.3753V0.597168Z" fill="white"/>
</mask>
<g mask="url(#mask0_40000028_1037)">
<path d="M17.0059 0.597168H18.0683V7.5972C18.8183 6.28467 20.0683 5.22217 22.1308 5.22217C25.0058 5.22217 26.6308 7.15967 26.6308 9.8472V16.7222H25.5683V10.0347C25.5683 7.72215 24.2558 6.15967 22.0058 6.15967C19.8184 6.15967 18.0683 7.84718 18.0683 10.1597V16.6597H17.0059V0.597168Z" fill="white"/>
<path d="M39.9433 5.47217H41.1308L36.2558 17.1597C35.2558 19.5347 34.1308 20.3472 32.5058 20.3472C31.6309 20.3472 31.0058 20.2222 30.2558 19.8472L30.6308 18.9097C31.2559 19.2222 31.6933 19.3472 32.5684 19.3472C33.7558 19.3472 34.5058 18.6597 35.3809 16.7222L29.9434 5.47217H31.1933L35.8808 15.5347L39.9433 5.47217Z" fill="white"/>
<path d="M45.5664 13.8466V6.47167H43.9414V5.47168H45.5664V1.84668H46.6289V5.47168H50.6289V6.47167H46.6914V13.7217C46.6914 15.3467 47.6289 15.9091 48.9414 15.9091C49.5039 15.9091 49.9414 15.7842 50.6289 15.5341V16.5342C50.0039 16.8467 49.4414 16.9717 48.7539 16.9717C47.0039 16.9717 45.5664 15.9717 45.5664 13.8466Z" fill="white"/>
<path d="M55.1914 0.597168H56.2539V7.5972C57.0039 6.28467 58.2539 5.22217 60.3164 5.22217C63.1914 5.22217 64.8164 7.15967 64.8164 9.8472V16.7222H63.7539V10.0347C63.7539 7.72215 62.4414 6.15967 60.1914 6.15967C58.0039 6.15967 56.2539 7.84718 56.2539 10.1597V16.6597H55.1914V0.597168Z" fill="white"/>
<path d="M82.3811 5.22168C80.2556 5.22168 79.0684 6.40918 78.3184 7.65915C78.2561 7.7217 78.2561 7.84665 78.1931 7.9092C78.1309 7.84665 78.1309 7.78418 78.0686 7.65915C77.3186 6.40918 76.1306 5.22168 74.0059 5.22168C71.3183 5.22168 69.6934 7.09668 69.6934 9.90915V16.7217H70.7558V10.0342C70.7558 7.59667 72.0058 6.15918 74.0683 6.15918C75.9431 6.15918 77.6306 7.59668 77.6306 10.1592V16.7217H78.6934V10.1592C78.6934 7.65915 80.3809 6.15918 82.2559 6.15918C84.3184 6.15918 85.5686 7.59667 85.5686 10.0342V16.7217H86.6306V9.90915C86.6936 7.09668 85.0061 5.22168 82.3811 5.22168Z" fill="white"/>
<path d="M7.81838 10.1592C10.4434 9.7842 12.3809 8.34667 12.3809 5.72167V5.65918C12.3809 4.53418 11.9434 3.53418 11.1934 2.78418C10.2559 1.84668 8.75588 1.28418 6.81836 1.28418H0.318359V12.7216H1.44336V2.34667H6.75586C9.56836 2.34667 11.1934 3.65917 11.1934 5.72167V5.78418C11.1934 8.03415 9.25583 9.34665 6.69336 9.34665H6.56836V10.4092L11.5058 16.7842H12.9434L7.81838 10.1592Z" fill="white"/>
<path d="M1.81641 16.2847C1.81641 16.7848 1.44141 17.1598 0.941406 17.1598C0.441406 17.1598 0.0664062 16.7848 0.0664062 16.2847C0.0664062 15.7848 0.441406 15.4098 0.941406 15.4098C1.3789 15.3472 1.81641 15.7848 1.81641 16.2847Z" fill="#00A3DF"/>
<path d="M39.5059 20.2847H40.6309C41.3183 20.2847 41.7559 20.6597 41.7559 21.2222C41.7559 21.8472 41.1934 22.2222 40.5683 22.2222H39.8183V23.2847H39.5059V20.2847ZM40.5683 21.9097C41.0683 21.9097 41.3809 21.6597 41.3809 21.2222C41.3809 20.7847 41.0683 20.5972 40.5683 20.5972H39.8183V21.9097H40.5683Z" fill="white"/>
<path d="M42.5645 20.2847H42.9395V21.5972H44.627V20.2847H45.002V23.2847H44.627V21.9097H42.9395V23.2847H42.5645V20.2847Z" fill="white"/>
<path d="M47.1914 20.2217H47.5039L48.8789 23.2217H48.5039L48.1914 22.4717H46.5664L46.1914 23.2842H45.8164L47.1914 20.2217ZM48.0039 22.1592L47.3164 20.6592L46.6289 22.1592H48.0039Z" fill="white"/>
<path d="M49.6895 20.2847H51.002C51.377 20.2847 51.6895 20.4097 51.877 20.5972C52.0019 20.7222 52.127 20.9722 52.127 21.1597C52.127 21.6597 51.8144 21.9722 51.3145 22.0347L52.252 23.2847H51.8144L50.9395 22.0972H50.0645V23.2847H49.7519V20.2847H49.6895ZM51.002 21.7847C51.4394 21.7847 51.752 21.5347 51.752 21.1597C51.752 20.7847 51.4394 20.5972 51.002 20.5972H50.0645V21.7847H51.002Z" fill="white"/>
<path d="M53.0645 20.2847H53.4395L54.502 21.9097L55.627 20.2847H55.9394V23.2847H55.627V20.8472L54.502 22.4097L53.4395 20.8472V23.2847H53.0645V20.2847Z" fill="white"/>
<path d="M58.1308 20.2217H58.4434L59.8183 23.2217H59.4433L59.1308 22.4717H57.5059L57.1309 23.2842H56.7559L58.1308 20.2217ZM59.0059 22.1592L58.3183 20.6592L57.6308 22.1592H59.0059Z" fill="white"/>
<path d="M60.377 21.7842C60.377 20.9092 61.0019 20.2217 61.877 20.2217C62.4395 20.2217 62.752 20.4092 63.0644 20.7217L62.8145 20.9717C62.5645 20.7217 62.252 20.5342 61.877 20.5342C61.1894 20.5342 60.6895 21.0967 60.6895 21.7842C60.6895 22.4717 61.1894 23.0342 61.877 23.0342C62.3144 23.0342 62.5645 22.8467 62.8145 22.5967L63.0644 22.7842C62.752 23.0967 62.4395 23.2842 61.877 23.2842C61.0019 23.2842 60.377 22.6592 60.377 21.7842Z" fill="white"/>
<path d="M63.9395 20.2847H66.127V20.5972H64.252V21.5972H65.9395V21.9097H64.252V22.9722H66.127V23.2847H63.9395V20.2847Z" fill="white"/>
<path d="M67.0039 22.0347V20.2847H67.3164V22.0347C67.3164 22.6597 67.6289 23.0347 68.2539 23.0347C68.8164 23.0347 69.1289 22.7222 69.1289 22.0347V20.2847H69.4414V21.9722C69.4414 22.8472 68.9414 23.2847 68.1914 23.2847C67.5039 23.2847 67.0039 22.8472 67.0039 22.0347Z" fill="white"/>
<path d="M71.3144 20.5972H70.3145V20.2847H72.6269V20.5972H71.627V23.2847H71.3144V20.5972Z" fill="white"/>
<path d="M73.8145 20.2847H73.502V23.2847H73.8145V20.2847Z" fill="white"/>
<path d="M74.8789 21.7842C74.8789 20.9092 75.5037 20.2217 76.3789 20.2217C76.9414 20.2217 77.2542 20.4092 77.5662 20.7217L77.3164 20.9717C77.0667 20.7217 76.7539 20.5342 76.3789 20.5342C75.6912 20.5342 75.1917 21.0967 75.1917 21.7842C75.1917 22.4717 75.6912 23.0342 76.3789 23.0342C76.8162 23.0342 77.0667 22.8467 77.3164 22.5967L77.5662 22.7842C77.2542 23.0967 76.9414 23.2842 76.3789 23.2842C75.5037 23.2842 74.8789 22.6592 74.8789 21.7842Z" fill="white"/>
<path d="M79.5686 20.2217H79.8806L81.2561 23.2217H80.8811L80.5061 22.4092H78.8809L78.5059 23.2217H78.1309L79.5686 20.2217ZM80.3809 22.1592L79.6931 20.6592L79.0061 22.1592H80.3809Z" fill="white"/>
<path d="M82.0684 20.2847H82.4434V22.9722H84.1309V23.2847H82.0684V20.2847Z" fill="white"/>
<path d="M84.8164 22.8472L85.0039 22.5972C85.3167 22.9097 85.6287 23.0347 86.0037 23.0347C86.3787 23.0347 86.6914 22.8472 86.6914 22.5347C86.6914 22.2847 86.5662 22.0972 85.9414 21.9722C85.2537 21.8472 84.9417 21.5972 84.9417 21.0972C84.9417 20.5972 85.3789 20.2847 85.9414 20.2847C86.3787 20.2847 86.6914 20.4097 87.0042 20.6597L86.8167 20.9097C86.5662 20.6597 86.2542 20.5972 85.9414 20.5972C85.5664 20.5972 85.3167 20.7847 85.3167 21.0972C85.3167 21.4097 85.4412 21.5347 86.1289 21.6597C86.8167 21.7847 87.1287 22.0347 87.1287 22.5347C87.1287 23.0347 86.6914 23.4097 86.1289 23.4097C85.5664 23.2847 85.1914 23.1597 84.8164 22.8472Z" fill="white"/>
<path d="M86.6914 6.28417C86.6914 6.09667 86.7537 5.90917 86.8167 5.72167C86.8789 5.53417 87.0042 5.40918 87.1287 5.28418C87.2539 5.15917 87.3792 5.09668 87.5667 4.97167C87.7542 4.90918 87.8787 4.84668 88.0662 4.84668C88.2537 4.84668 88.4412 4.90918 88.5664 4.97167C88.7539 5.03418 88.8792 5.15917 89.0037 5.28418C89.1289 5.40918 89.2542 5.53417 89.3164 5.72167C89.3787 5.90917 89.4417 6.09667 89.4417 6.28417C89.4417 6.47167 89.3787 6.65917 89.3164 6.84667C89.2542 7.03417 89.1289 7.15918 89.0037 7.28418C88.8792 7.40917 88.7539 7.47168 88.5664 7.59667C88.3789 7.65915 88.2537 7.7217 88.0662 7.7217C87.8787 7.7217 87.6912 7.65915 87.5667 7.59667C87.3792 7.5342 87.2539 7.40917 87.1287 7.28418C87.0042 7.15918 86.8789 7.03417 86.8167 6.84667C86.7537 6.65917 86.6914 6.47167 86.6914 6.28417ZM86.9412 6.28417C86.9412 6.47167 86.9412 6.59668 87.0042 6.72168C87.0664 6.84667 87.1287 6.97168 87.2539 7.09668C87.3792 7.22167 87.4414 7.28418 87.6289 7.34668C87.7542 7.40917 87.8787 7.40917 88.0662 7.40917C88.2537 7.40917 88.3789 7.40917 88.5042 7.34668C88.6287 7.28418 88.7539 7.22167 88.8792 7.09668C89.0037 6.97168 89.0667 6.84667 89.1289 6.72168C89.1912 6.59668 89.1912 6.40918 89.1912 6.28417C89.1912 6.09667 89.1912 5.97168 89.1289 5.84668C89.0667 5.72167 89.0037 5.59668 88.8792 5.47168C88.7539 5.34667 88.6917 5.28418 88.5042 5.22168C88.3789 5.15917 88.2537 5.15917 88.0662 5.15917C87.8787 5.15917 87.7542 5.15917 87.6289 5.22168C87.5037 5.28418 87.3792 5.34667 87.2539 5.47168C87.1287 5.59668 87.0664 5.72167 87.0042 5.84668C86.9412 5.97168 86.9412 6.09667 86.9412 6.28417ZM87.5037 5.47168H88.1292C88.5042 5.47168 88.6917 5.59668 88.6917 5.90917C88.6917 6.03418 88.6287 6.15918 88.5664 6.22168C88.5042 6.28417 88.3789 6.34668 88.2537 6.34668L88.6917 7.03417H88.4412L88.0039 6.34668H87.7542V7.03417H87.5037V5.47168ZM87.7542 6.15918H88.0039C88.0662 6.15918 88.1292 6.15918 88.1292 6.15918C88.1914 6.15918 88.2537 6.15918 88.2537 6.15918C88.3167 6.15918 88.3167 6.09667 88.3789 6.09667C88.3789 6.03418 88.4412 6.03418 88.4412 5.97168C88.4412 5.90917 88.4412 5.84668 88.3789 5.84668C88.3789 5.78418 88.3167 5.78418 88.3167 5.78418C88.2537 5.78418 88.2537 5.78418 88.1914 5.72167C88.1292 5.72167 88.1292 5.72167 88.0662 5.72167H87.7542V6.15918Z" fill="white"/>
</g>
</g>
<defs>
<clipPath id="clip0_40000028_1037">
<rect width="90" height="24" fill="white"/>
</clipPath>
</defs>
</svg>
